<svg width="77" height="77" viewBox="0 0 77 77" fill="none" xmlns="http://www.w3.org/2000/svg">
<rect width="77" height="77" rx="38.5" fill="#E9FBFF"/>
<g clip-path="url(#clip0_1041_393)">
<path d="M51.9639 47.717C51.4649 48.87 50.8742 49.9312 50.1897 50.9069C49.2568 52.2371 48.4929 53.1578 47.9043 53.6691C46.9917 54.5083 46.014 54.9381 44.9669 54.9625C44.2153 54.9625 43.3088 54.7487 42.2537 54.3148C41.1951 53.883 40.2222 53.6691 39.3327 53.6691C38.3997 53.6691 37.3992 53.883 36.329 54.3148C35.2571 54.7487 34.3936 54.9748 33.7335 54.9972C32.7294 55.04 31.7287 54.5979 30.7297 53.6691C30.0922 53.113 29.2947 52.1597 28.3393 50.8092C27.3143 49.367 26.4716 47.6946 25.8115 45.788C25.1044 43.7286 24.75 41.7344 24.75 39.8038C24.75 37.5922 25.2279 35.6848 26.185 34.0864C26.9373 32.8025 27.9381 31.7897 29.1906 31.0462C30.4431 30.3027 31.7965 29.9238 33.254 29.8996C34.0514 29.8996 35.0972 30.1463 36.3968 30.6311C37.6927 31.1175 38.5248 31.3642 38.8896 31.3642C39.1624 31.3642 40.0868 31.0757 41.6538 30.5007C43.1357 29.9674 44.3864 29.7466 45.411 29.8336C48.1874 30.0577 50.2733 31.1521 51.6604 33.1239C49.1774 34.6284 47.9491 36.7357 47.9735 39.439C47.9959 41.5446 48.7598 43.2968 50.261 44.688C50.9414 45.3338 51.7012 45.8328 52.5465 46.1873C52.3632 46.7189 52.1697 47.2282 51.9639 47.717V47.717ZM45.5964 22.6602C45.5964 24.3106 44.9934 25.8515 43.7916 27.2778C42.3413 28.9734 40.587 29.9532 38.6847 29.7986C38.6605 29.6006 38.6464 29.3922 38.6464 29.1732C38.6464 27.5889 39.3361 25.8933 40.561 24.5069C41.1725 23.805 41.9502 23.2213 42.8933 22.7557C43.8344 22.2971 44.7245 22.0434 45.5617 22C45.5862 22.2206 45.5964 22.4413 45.5964 22.6602V22.6602Z" fill="#141F25"/>
</g>
<defs>
<clipPath id="clip0_1041_393">
<rect width="33" height="33" fill="white" transform="translate(22 22)"/>
</clipPath>
</defs>
</svg>
