<svg width="77" height="77" viewBox="0 0 77 77" fill="none" xmlns="http://www.w3.org/2000/svg">
<rect width="77" height="77" rx="38.5" fill="#E9FBFF"/>
<g clip-path="url(#clip0_1041_397)">
<path d="M38.5 22C29.3874 22 22 29.3874 22 38.5C22 46.2378 27.3275 52.7309 34.5143 54.5142V43.5424H31.112V38.5H34.5143V36.3273C34.5143 30.7113 37.0559 28.1083 42.5696 28.1083C43.615 28.1083 45.4188 28.3136 46.1567 28.5182V33.0887C45.7673 33.0477 45.0908 33.0273 44.2506 33.0273C41.5452 33.0273 40.4998 34.0523 40.4998 36.7167V38.5H45.8894L44.9634 43.5424H40.4998V54.8792C48.6699 53.8925 55.0007 46.9361 55.0007 38.5C55 29.3874 47.6126 22 38.5 22Z" fill="#141F25"/>
</g>
<defs>
<clipPath id="clip0_1041_397">
<rect width="33" height="33" fill="white" transform="translate(22 22)"/>
</clipPath>
</defs>
</svg>
