<svg width="77" height="77" viewBox="0 0 77 77" fill="none" xmlns="http://www.w3.org/2000/svg">
<rect width="77" height="77" rx="38.5" fill="#E9FBFF"/>
<g clip-path="url(#clip0_1041_395)">
<path d="M38.5 35.5V41.89H47.1109C46.7328 43.945 45.5981 45.6851 43.8963 46.8551L49.089 51.0101C52.1144 48.1302 53.8599 43.9001 53.8599 38.8752C53.8599 37.7052 53.7581 36.5801 53.569 35.5002L38.5 35.5Z" fill="#141F25"/>
<path d="M29.5335 41.6406L28.3623 42.5651L24.2168 45.8951C26.8495 51.28 32.2455 55.0001 38.5 55.0001C42.8199 55.0001 46.4416 53.5301 49.089 51.0101L43.8963 46.8551C42.4708 47.8451 40.6526 48.4452 38.5 48.4452C34.34 48.4452 30.8056 45.5502 29.54 41.6502L29.5335 41.6406Z" fill="#141F25"/>
<path d="M24.2162 31.1055C23.1254 33.3254 22.5 35.8304 22.5 38.5004C22.5 41.1703 23.1254 43.6754 24.2162 45.8953C24.2162 45.9102 29.54 41.6353 29.54 41.6353C29.22 40.6453 29.0308 39.5953 29.0308 38.5002C29.0308 37.4051 29.22 36.3551 29.54 35.3651L24.2162 31.1055Z" fill="#141F25"/>
<path d="M38.5003 28.57C40.8567 28.57 42.9512 29.41 44.6239 31.03L49.2057 26.3051C46.4275 23.6351 42.8204 22 38.5003 22C32.2458 22 26.8495 25.705 24.2168 31.105L29.5404 35.365C30.8057 31.465 34.3403 28.57 38.5003 28.57Z" fill="#141F25"/>
</g>
<defs>
<clipPath id="clip0_1041_395">
<rect width="32" height="33" fill="white" transform="translate(22.5 22)"/>
</clipPath>
</defs>
</svg>
