<svg width="560" height="165" viewBox="0 0 560 165" fill="none" xmlns="http://www.w3.org/2000/svg">
<mask id="mask0_316_228" style="mask-type:luminance" maskUnits="userSpaceOnUse" x="0" y="119" width="215" height="43">
<path d="M0.5 119.638H214.036V161.881H0.5V119.638Z" fill="white"/>
</mask>
<g mask="url(#mask0_316_228)">
<path d="M43.3755 120.262C38.2159 120.598 33.4953 121.423 29.2551 122.549C12.2911 127.054 2.54357 136.522 2.54357 136.522C2.22238 136.837 1.93656 137.179 1.68609 137.547C1.43268 137.919 1.21757 138.311 1.04372 138.723C0.869863 139.136 0.734317 139.56 0.64297 139.999C0.551624 140.438 0.504477 140.883 0.501531 141.331C0.495637 141.779 0.53689 142.221 0.619397 142.663C0.701903 143.102 0.82861 143.532 0.99657 143.947C1.16453 144.363 1.3708 144.758 1.61537 145.132C1.85994 145.506 2.13988 145.854 2.45517 146.175C2.76752 146.493 3.10933 146.779 3.48061 147.033C3.84894 147.283 4.24085 147.498 4.65338 147.672C5.06591 147.849 5.49023 147.981 5.92929 148.073C6.36539 148.164 6.81034 148.211 7.25823 148.214C7.70318 148.22 8.14812 148.179 8.58718 148.096C9.02623 148.014 9.4535 147.887 9.86898 147.719C10.2845 147.554 10.6793 147.345 11.0535 147.1C11.4278 146.856 11.7755 146.576 12.0937 146.264C12.0937 146.264 18.9653 139.404 32.7498 135.744C46.5343 132.084 66.7573 131.757 93.6633 147.304C153.822 182.066 211.191 140.786 211.191 140.786C211.553 140.523 211.886 140.229 212.193 139.899C212.496 139.572 212.767 139.215 213 138.835C213.236 138.452 213.43 138.051 213.587 137.633C213.743 137.211 213.858 136.781 213.928 136.339C213.999 135.894 214.026 135.449 214.008 135.001C213.993 134.554 213.931 134.112 213.828 133.675C213.725 133.242 213.581 132.818 213.392 132.411C213.207 132.005 212.983 131.619 212.72 131.256C212.458 130.894 212.163 130.558 211.833 130.254C211.506 129.951 211.15 129.68 210.77 129.444C210.39 129.208 209.989 129.014 209.567 128.858C209.149 128.701 208.719 128.589 208.277 128.519C207.835 128.448 207.39 128.419 206.942 128.436C206.494 128.454 206.052 128.513 205.616 128.616C205.18 128.719 204.758 128.866 204.352 129.052C203.945 129.241 203.562 129.465 203.197 129.727C203.197 129.727 153.36 166.036 100.482 135.485C78.2728 122.652 58.8543 119.257 43.3755 120.262Z" fill="#86D4E6"/>
</g>
<path d="M380.098 75.1104C362.598 76.4187 351.28 83.9357 351.28 83.9357C350.909 84.1861 350.564 84.469 350.249 84.7873C349.933 85.1025 349.651 85.4503 349.403 85.8215C349.156 86.1958 348.946 86.5877 348.775 87.0031C348.607 87.4186 348.478 87.8429 348.392 88.2849C348.304 88.724 348.263 89.166 348.263 89.6139C348.266 90.0618 348.31 90.5067 348.398 90.9458C348.487 91.3848 348.616 91.8121 348.787 92.2246C348.961 92.6372 349.17 93.032 349.421 93.4033C349.671 93.7746 349.954 94.1193 350.272 94.4346C350.588 94.7499 350.935 95.0328 351.307 95.2803C351.681 95.5278 352.073 95.7371 352.488 95.908C352.901 96.0789 353.328 96.2056 353.767 96.291C354.206 96.3794 354.648 96.4207 355.096 96.4207C355.544 96.4207 355.989 96.3735 356.428 96.2851C356.864 96.1967 357.291 96.0671 357.704 95.8962C358.116 95.7223 358.511 95.5131 358.882 95.2626C358.882 95.2626 366.897 89.7819 381.118 88.7181C395.339 87.6544 415.279 91.0519 438.873 111.278C491.63 156.509 555.596 126.48 555.596 126.48C556.003 126.288 556.383 126.058 556.742 125.79C557.105 125.525 557.435 125.224 557.735 124.891C558.036 124.561 558.301 124.202 558.531 123.819C558.761 123.433 558.952 123.032 559.102 122.611C559.253 122.186 559.362 121.756 559.427 121.311C559.491 120.869 559.515 120.424 559.491 119.976C559.471 119.528 559.406 119.086 559.297 118.653C559.188 118.217 559.038 117.799 558.846 117.392C558.655 116.988 558.428 116.605 558.16 116.246C557.894 115.886 557.594 115.553 557.264 115.253C556.931 114.952 556.574 114.687 556.191 114.454C555.805 114.224 555.404 114.033 554.983 113.883C554.562 113.732 554.128 113.623 553.686 113.556C553.242 113.491 552.797 113.47 552.352 113.491C551.904 113.511 551.462 113.576 551.029 113.685C550.592 113.794 550.174 113.945 549.77 114.136C549.77 114.136 494.114 140.668 447.745 100.914C421.776 78.6523 397.602 73.7991 380.098 75.1104Z" fill="#86D4E6"/>
<path d="M238.292 90.5776L257.496 149.62L212.848 164.165C212.848 164.165 187.138 170.683 177.995 142.571C169.025 114.994 195.392 104.303 195.392 104.303L238.292 90.5776Z" fill="#1E434B"/>
<path d="M259.09 116.452C259.405 117.419 259.7 118.388 259.977 119.363C260.254 120.336 260.51 121.308 260.749 122.281C260.985 123.253 261.2 124.217 261.394 125.177C261.589 126.138 261.763 127.087 261.913 128.027C262.063 128.964 262.19 129.889 262.293 130.797C262.399 131.707 262.479 132.597 262.538 133.466C262.597 134.338 262.629 135.184 262.641 136.006C262.65 136.831 262.638 137.627 262.599 138.393C262.564 139.162 262.502 139.899 262.42 140.606C262.334 141.31 262.228 141.982 262.099 142.619C261.966 143.255 261.816 143.853 261.639 144.416C261.465 144.976 261.268 145.497 261.05 145.978C260.831 146.458 260.59 146.894 260.331 147.289C260.071 147.687 259.791 148.035 259.494 148.341C259.196 148.647 258.881 148.907 258.545 149.122C258.212 149.334 257.861 149.502 257.493 149.62C257.128 149.741 256.747 149.811 256.35 149.835C255.955 149.861 255.545 149.838 255.124 149.764C254.702 149.694 254.272 149.576 253.83 149.408C253.388 149.243 252.937 149.031 252.478 148.768C252.018 148.509 251.552 148.205 251.081 147.855C250.61 147.504 250.135 147.109 249.655 146.673C249.174 146.234 248.694 145.754 248.211 145.235C247.728 144.714 247.244 144.154 246.764 143.553C246.281 142.954 245.803 142.318 245.326 141.646C244.852 140.977 244.38 140.27 243.915 139.533C243.449 138.797 242.992 138.031 242.542 137.232C242.091 136.436 241.652 135.614 241.221 134.769C240.788 133.92 240.37 133.051 239.963 132.161C239.557 131.271 239.162 130.36 238.782 129.438C238.401 128.513 238.036 127.573 237.688 126.624C237.341 125.672 237.008 124.715 236.692 123.748C236.38 122.782 236.082 121.809 235.805 120.837C235.528 119.861 235.272 118.889 235.036 117.92C234.798 116.947 234.583 115.981 234.388 115.02C234.194 114.062 234.02 113.111 233.872 112.174C233.722 111.234 233.593 110.308 233.489 109.401C233.383 108.49 233.304 107.603 233.245 106.731C233.189 105.862 233.153 105.016 233.145 104.191C233.133 103.369 233.148 102.573 233.183 101.804C233.221 101.035 233.28 100.299 233.366 99.5943C233.448 98.8871 233.557 98.2182 233.687 97.5817C233.816 96.9453 233.97 96.3441 234.144 95.7843C234.32 95.2215 234.515 94.7029 234.736 94.2225C234.954 93.7422 235.193 93.3032 235.452 92.9083C235.711 92.5135 235.991 92.1628 236.289 91.8564C236.586 91.5529 236.905 91.2906 237.238 91.0785C237.571 90.8633 237.921 90.6983 238.289 90.5775C238.655 90.4597 239.038 90.386 239.433 90.3624C239.828 90.3388 240.237 90.3624 240.659 90.4331C241.08 90.5039 241.51 90.6247 241.952 90.7897C242.394 90.9576 242.845 91.1698 243.305 91.4291C243.764 91.6884 244.23 91.9949 244.701 92.3455C245.173 92.6962 245.65 93.0881 246.128 93.5271C246.608 93.9632 247.091 94.4435 247.574 94.9651C248.055 95.4867 248.538 96.0465 249.021 96.6447C249.502 97.2429 249.982 97.8794 250.456 98.5512C250.931 99.223 251.402 99.9273 251.868 100.664C252.333 101.404 252.79 102.17 253.241 102.965C253.692 103.761 254.131 104.583 254.564 105.432C254.994 106.28 255.413 107.15 255.819 108.039C256.229 108.929 256.621 109.837 257.001 110.762C257.381 111.687 257.746 112.624 258.094 113.576C258.445 114.525 258.775 115.486 259.09 116.452Z" fill="#275762"/>
<path d="M242.374 103.82L245.548 113.962L245.577 113.921L264.424 108.013L267.259 107.123C270.067 106.245 271.617 103.272 270.739 100.464C269.858 97.6555 266.89 96.1026 264.085 96.9807L261.25 97.8706L242.403 103.779L242.374 103.82Z" fill="#ECECEC"/>
<path d="M300.871 73.0154L317.131 132.939L362.445 120.625C362.445 120.625 387.518 111.976 379.78 83.4496C372.183 55.4592 344.275 60.9724 344.275 60.9724L300.871 73.0154Z" fill="#1E434B"/>
<path d="M297.638 106.065C297.906 107.046 298.189 108.022 298.489 108.988C298.79 109.955 299.108 110.91 299.444 111.85C299.777 112.792 300.125 113.721 300.487 114.628C300.85 115.539 301.227 116.429 301.616 117.295C302.002 118.164 302.403 119.007 302.812 119.823C303.222 120.642 303.643 121.429 304.07 122.189C304.498 122.95 304.934 123.677 305.376 124.37C305.818 125.065 306.263 125.722 306.716 126.347C307.167 126.969 307.621 127.552 308.078 128.097C308.535 128.64 308.991 129.144 309.448 129.603C309.905 130.066 310.361 130.481 310.815 130.856C311.269 131.23 311.72 131.557 312.165 131.84C312.61 132.123 313.049 132.355 313.485 132.544C313.918 132.733 314.342 132.871 314.758 132.965C315.176 133.057 315.583 133.101 315.981 133.095C316.376 133.092 316.762 133.039 317.133 132.939C317.504 132.836 317.864 132.688 318.208 132.491C318.553 132.294 318.88 132.049 319.193 131.76C319.508 131.468 319.803 131.133 320.083 130.752C320.36 130.369 320.622 129.945 320.863 129.477C321.105 129.005 321.326 128.495 321.529 127.944C321.733 127.393 321.915 126.801 322.077 126.173C322.239 125.543 322.378 124.88 322.496 124.178C322.617 123.477 322.714 122.743 322.788 121.977C322.864 121.214 322.914 120.418 322.947 119.596C322.976 118.774 322.985 117.926 322.97 117.053C322.956 116.181 322.917 115.288 322.858 114.378C322.799 113.464 322.717 112.533 322.614 111.587C322.511 110.644 322.387 109.687 322.239 108.717C322.092 107.751 321.924 106.775 321.736 105.791C321.547 104.81 321.338 103.826 321.111 102.839C320.881 101.854 320.634 100.87 320.368 99.889C320.103 98.9078 319.817 97.9325 319.517 96.966C319.216 95.9994 318.898 95.0447 318.565 94.1018C318.232 93.1589 317.881 92.2336 317.519 91.3231C317.156 90.4155 316.782 89.5256 316.393 88.6564C316.004 87.79 315.604 86.9473 315.194 86.1281C314.784 85.3119 314.366 84.5222 313.936 83.7619C313.509 83.0047 313.072 82.2768 312.63 81.5814C312.188 80.8889 311.743 80.2289 311.293 79.6071C310.839 78.9854 310.385 78.402 309.928 77.8568C309.472 77.3117 309.015 76.8108 308.558 76.3481C308.101 75.8885 307.645 75.47 307.191 75.0988C306.737 74.7245 306.289 74.3974 305.841 74.1146C305.396 73.8317 304.957 73.596 304.524 73.4103C304.091 73.2217 303.664 73.0803 303.248 72.9889C302.83 72.8976 302.423 72.8534 302.028 72.8563C301.631 72.8622 301.247 72.9153 300.873 73.0155C300.502 73.1156 300.142 73.2659 299.801 73.4634C299.456 73.6608 299.126 73.9024 298.813 74.1941C298.501 74.4858 298.204 74.8218 297.927 75.2019C297.647 75.585 297.387 76.0093 297.143 76.4778C296.901 76.9463 296.68 77.459 296.477 78.0101C296.273 78.5611 296.091 79.1504 295.932 79.781C295.77 80.4116 295.628 81.0746 295.51 81.7759C295.389 82.4772 295.295 83.2109 295.219 83.9741C295.145 84.7402 295.092 85.5358 295.062 86.358C295.03 87.1801 295.024 88.0258 295.036 88.898C295.051 89.7702 295.089 90.663 295.148 91.5765C295.207 92.49 295.289 93.4182 295.392 94.364C295.496 95.3099 295.622 96.2676 295.767 97.2341C295.914 98.2036 296.082 99.1789 296.271 100.16C296.459 101.144 296.668 102.129 296.895 103.113C297.125 104.1 297.373 105.084 297.638 106.065Z" fill="#275762"/>
<path d="M310.374 116.196C310.492 116.694 310.624 117.18 310.772 117.657C310.916 118.132 311.072 118.588 311.24 119.028C311.405 119.464 311.579 119.873 311.759 120.256C311.939 120.639 312.121 120.987 312.31 121.296C312.499 121.609 312.684 121.88 312.873 122.11C313.058 122.34 313.244 122.525 313.424 122.664C313.604 122.802 313.777 122.891 313.942 122.935C314.11 122.976 314.264 122.97 314.411 122.914C314.555 122.858 314.688 122.755 314.809 122.602C314.927 122.452 315.03 122.254 315.121 122.013C315.209 121.771 315.28 121.488 315.336 121.167C315.389 120.846 315.428 120.486 315.445 120.097C315.463 119.705 315.463 119.29 315.445 118.845C315.425 118.4 315.389 117.937 315.333 117.457C315.28 116.977 315.207 116.488 315.118 115.99C315.03 115.492 314.927 114.994 314.806 114.499C314.688 114.001 314.555 113.514 314.408 113.037C314.264 112.563 314.107 112.106 313.942 111.667C313.774 111.228 313.604 110.818 313.421 110.438C313.241 110.055 313.058 109.707 312.87 109.395C312.684 109.085 312.496 108.814 312.307 108.585C312.121 108.355 311.936 108.169 311.756 108.031C311.576 107.892 311.402 107.801 311.237 107.759C311.072 107.718 310.916 107.724 310.769 107.78C310.624 107.836 310.492 107.939 310.374 108.092C310.253 108.243 310.15 108.44 310.062 108.682C309.97 108.923 309.9 109.206 309.847 109.527C309.791 109.849 309.755 110.205 309.735 110.597C309.717 110.989 309.717 111.405 309.738 111.849C309.755 112.294 309.791 112.754 309.847 113.234C309.9 113.718 309.973 114.207 310.062 114.705C310.15 115.203 310.253 115.698 310.374 116.196Z" fill="#ECECEC"/>
<path d="M304.43 93.7717C304.548 94.2668 304.68 94.7559 304.828 95.2303C304.972 95.7077 305.128 96.1644 305.293 96.6035C305.461 97.0396 305.632 97.4492 305.815 97.8322C305.995 98.2153 306.177 98.5601 306.366 98.8724C306.552 99.1847 306.74 99.4558 306.929 99.6857C307.114 99.9155 307.3 100.098 307.48 100.237C307.66 100.375 307.833 100.467 307.998 100.508C308.163 100.552 308.32 100.543 308.467 100.49C308.611 100.434 308.744 100.328 308.862 100.178C308.983 100.027 309.086 99.8301 309.174 99.5884C309.263 99.3468 309.336 99.0639 309.389 98.7427C309.445 98.4186 309.481 98.0621 309.498 97.6731C309.519 97.2812 309.519 96.8628 309.498 96.4208C309.481 95.9758 309.445 95.5132 309.389 95.0329C309.336 94.5526 309.263 94.0634 309.174 93.5655C309.086 93.0675 308.983 92.5695 308.862 92.0715C308.741 91.5765 308.608 91.0903 308.464 90.6129C308.32 90.1355 308.163 89.6788 307.995 89.2427C307.83 88.8036 307.657 88.3941 307.477 88.011C307.297 87.6309 307.114 87.2832 306.926 86.9708C306.737 86.6585 306.552 86.3874 306.363 86.1575C306.177 85.9277 305.992 85.745 305.812 85.6065C305.632 85.468 305.458 85.3767 305.293 85.3354C305.125 85.2942 304.972 85.3001 304.825 85.3561C304.68 85.412 304.548 85.5152 304.427 85.6655C304.309 85.8187 304.203 86.0132 304.115 86.2548C304.026 86.4964 303.956 86.7793 303.9 87.1034C303.847 87.4246 303.808 87.7812 303.791 88.1731C303.773 88.562 303.773 88.9804 303.791 89.4254C303.811 89.8674 303.847 90.33 303.9 90.8103C303.956 91.2906 304.026 91.7798 304.118 92.2778C304.206 92.7758 304.309 93.2737 304.43 93.7717Z" fill="#ECECEC"/>
<path d="M249.339 124.883L252.512 135.022L252.542 134.981L271.392 129.073L274.226 128.186C277.032 127.305 278.585 124.334 277.706 121.526C276.825 118.718 273.858 117.162 271.053 118.043L268.218 118.933L249.368 124.841L249.339 124.883Z" fill="#ECECEC"/>
<path d="M240.809 78.1102L214.457 55.804L226.167 51.5903L206.183 22.7896L240.505 52.6481L229.24 56.6998L240.809 78.1102Z" fill="#CCF5FF"/>
<mask id="mask1_316_228" style="mask-type:luminance" maskUnits="userSpaceOnUse" x="250" y="0" width="27" height="66">
<path d="M250.999 0H276.647V65.3246H250.999V0Z" fill="white"/>
</mask>
<g mask="url(#mask1_316_228)">
<path d="M265.802 64.9651L251.148 33.6892L263.551 34.75L257.392 0.229858L276.142 41.6953L264.214 40.6758L265.802 64.9651Z" fill="#CCF5FF"/>
</g>
<path d="M286.485 59.3134L292.806 25.3561L302.262 33.4535L317.372 1.81812L308.444 46.4424L299.348 38.6544L286.485 59.3134Z" fill="#CCF5FF"/>
</svg>
